<svg viewBox="0 0 395.52 107.68190665938769" height="107.68190665938769" width="395.52" data-background-color="#444444" preserveAspectRatio="xMidYMid meet" id="tight-bounds" xmlns="http://www.w3.org/2000/svg" xmlns:xlink="http://www.w3.org/1999/xlink"><g><svg viewBox="0 0 395.52 107.68190665938769" height="107.68190665938769" width="395.52"><g><svg viewBox="0 0 679.9829479174903 185.1280853752692" height="107.68190665938769" width="395.52"><g transform="matrix(1,0,0,1,284.46294791749034,7.7786601890104805)"><svg viewBox="0 0 395.52 169.57076499724823" height="169.57076499724823" width="395.52"><g id="textblocktransform"><svg viewBox="0 0 395.52 169.57076499724823" height="169.57076499724823" width="395.52" id="textblock"><g><svg viewBox="0 0 395.52 169.57076499724823" height="169.57076499724823" width="395.52"><g transform="matrix(1,0,0,1,0,0)"><svg width="395.52" viewBox="0.45000001788139343 -38.45000076293945 91.84000396728516 38.95000076293945" height="169.57076499724823" data-palette-color="#ffffff"><g class="wordmark-text-0" data-fill-palette-color="primary" id="text-0"><path d="M8.5-35.05L8.5-35.05 8.5-7.4Q8.5-4.35 10.55-3.95L10.55-3.95 10.55-2.85 5.5 0Q4.4-0.45 3.45-1.48 2.5-2.5 2.5-3.4L2.5-3.4 2.5-31.05Q2.5-34.1 0.45-34.5L0.45-34.5 0.45-35.6 5.5-38.45Q6.6-38 7.55-36.98 8.5-35.95 8.5-35.05ZM25.75-28.5L25.75-28.5Q26-28.5 27-27.73 28-26.95 29-25.58 30-24.2 30-22.9L30-22.9 30-14.5Q30-13.6 27.35-12.3 24.7-11 22.22-10.18 19.75-9.35 19.55-9.35L19.55-9.35Q19.55-5.5 22.9-4.6L22.9-4.6Q24.55-4.2 26.85-4.2L26.85-4.2 26.85-2.75Q18.65 0 18.1 0L18.1 0Q16.6 0 15.05-2.13 13.5-4.25 13.5-7.1L13.5-7.1 13.5-23.9Q13.5-24.25 19.2-26.38 24.9-28.5 25.75-28.5ZM24-20.55Q24-21.95 23.35-22.93 22.7-23.9 21.7-23.9 20.7-23.9 19.5-23.15L19.5-23.15 19.5-11.6Q24-12.85 24-17L24-17 24-20.55ZM34.75-7.3L34.75-7.3 34.75-23.9Q34.75-24.25 40.45-26.38 46.15-28.5 47-28.5 47.85-28.5 49.57-26.45 51.3-24.4 51.3-22.75L51.3-22.75 51.3-4.65Q51.3-4.25 45.82-2.13 40.35 0 39.12 0 37.9 0 36.32-2.15 34.75-4.3 34.75-7.3ZM43.3-4.6L43.3-4.6Q44.25-4.6 45.25-5.4L45.25-5.4 45.25-20.15Q45.25-23.85 42.7-23.85L42.7-23.85Q41.7-23.85 40.75-23.1L40.75-23.1 40.75-8.3Q40.75-4.6 43.3-4.6ZM63.19-23.65L63.19-23.65Q62.69-23.65 62.29-23.15L62.29-23.15 62.29-9.35Q62.29-5.5 65.59-4.6L65.59-4.6Q67.29-4.2 69.64-4.2L69.64-4.2 69.64-2.75Q61.44 0 60.89 0L60.89 0Q59.39 0 57.84-2.13 56.29-4.25 56.29-7.1L56.29-7.1 56.29-23.9Q56.29-24.25 62.02-26.38 67.74-28.5 68.59-28.5L68.59-28.5Q68.89-28.5 69.29-27.05 69.69-25.6 70.22-23.55 70.74-21.5 71.32-20.53 71.89-19.55 73.49-19.55L73.49-19.55 73.49-18.55Q72.39-18.05 69.77-16.78 67.14-15.5 66.94-15.5L66.94-15.5Q66.19-15.5 65.04-19.58 63.89-23.65 63.19-23.65ZM78.79-10.95L78.79-10.95Q77.54-10.95 76.64-12.85 75.74-14.75 75.74-17.5L75.74-17.5 75.74-22.9Q75.74-23.85 80.99-26.18 86.24-28.5 87.04-28.5L87.04-28.5Q87.49-28.5 87.84-27.98 88.19-27.45 88.39-27.13 88.59-26.8 89.02-26.03 89.44-25.25 89.74-24.75L89.74-24.75Q90.39-23.55 91.39-23.55L91.39-23.55 91.39-22.55Q90.59-22.2 89.29-21.5L89.29-21.5Q86.09-19.75 85.84-19.75L85.84-19.75Q85.09-19.75 84.22-22.2 83.34-24.65 82.64-24.65L82.64-24.65Q81.74-24.65 81.74-23.15L81.74-23.15 81.74-17Q81.74-15 82.64-15L82.64-15Q82.84-15 85.74-16.3 88.64-17.6 89.24-17.6L89.24-17.6Q90.44-17.6 91.37-15.68 92.29-13.75 92.29-10.75L92.29-10.75 92.29-5.1Q92.29-4.15 86.57-1.83 80.84 0.5 79.99 0.5L79.99 0.5Q79.64 0.5 79.32-0.13 78.99-0.75 78.42-2.05 77.84-3.35 77.29-4.25L77.29-4.25Q76.64-5.45 75.64-5.45L75.64-5.45 75.64-6.45Q76.44-6.8 77.79-7.5L77.79-7.5Q80.94-9.25 81.19-9.25L81.19-9.25Q81.94-9.25 83.07-6.3 84.19-3.35 84.89-3.35L84.89-3.35Q85.39-3.35 85.84-3.75 86.29-4.15 86.29-4.85L86.29-4.85 86.29-11.1Q86.29-13.35 85.04-13.35L85.04-13.35Q84.64-13.35 81.89-12.15 79.14-10.95 78.79-10.95Z" fill="#ffffff" data-fill-palette-color="primary"></path></g></svg></g></svg></g></svg></g></svg></g><g><svg viewBox="0 0 244.43135999999998 185.1280853752692" height="185.1280853752692" width="244.43135999999998"><g><svg xmlns="http://www.w3.org/2000/svg" xmlns:xlink="http://www.w3.org/1999/xlink" version="1.0" x="0" y="0" viewBox="5.274420738220215 19.823713302612305 89.1544418334961 67.52403259277344" enable-background="new 0 0 100 100" xml:space="preserve" height="185.1280853752692" width="244.43135999999998" class="icon-icon-0" data-fill-palette-color="accent" id="icon-0"><path d="M35.666 24.567c-0.536-0.764-1.311-1.322-2.115-1.776-0.527-0.298-1.178-0.439-1.769-0.643-0.108-0.271-0.309-0.513-0.538-0.652-0.775-0.473-1.545-0.222-2.046 0.484-0.138 0.194-0.201 0.388-0.212 0.576-1.5 0.744-2.861 2.545-3.817 3.52-2.124 2.165-4.142 4.432-6.171 6.685C14.942 37.264 10.816 41.782 5.875 45.337c-0.548 0.394-0.786 1.047-0.438 1.671 4.608 8.262 8.196 17.03 10.708 26.15 0.135 0.488 0.643 0.944 1.177 0.896 2.222-0.198 4.428-0.124 6.624 0.282 0.265 0.049 0.538 0.015 0.781-0.082 0.312 0.256 0.612 0.527 0.906 0.813 0.915 0.894 2.273-0.019 2.04-1.188-1.605-8.058-3.058-16.144-4.363-24.255 0.006-0.028 0.012-0.054 0.017-0.084 0.061-0.413 0.061-0.77-0.04-1.099 2.68-4.492 5.586-8.842 8.716-13.034 1.616-2.165 3.851-4.278 4.915-6.783C37.609 27 37.099 25.139 35.666 24.567zM20.873 49.757c1.043 6.52 2.184 13.024 3.422 19.51-1.357-4.199-2.714-8.398-4.071-12.597-0.81-2.506-1.62-5.013-2.43-7.519C18.826 49.326 19.851 49.529 20.873 49.757zM27.765 37.091c-2.363 3.31-4.572 6.728-6.651 10.223-0.937-0.203-1.878-0.385-2.823-0.543 0.486-0.499 0.973-0.999 1.459-1.499 1.02-1.047 2.04-2.095 3.059-3.142 1.683-1.728 3.37-3.453 5.056-5.178C27.832 36.999 27.798 37.045 27.765 37.091zM33.234 27.923c-4.115 4.528-8.562 8.795-12.831 13.179l-3.06 3.142c-0.848 0.871-2.238 1.88-2.357 3.191-0.118 1.308 0.548 2.655 0.944 3.88 0.497 1.54 0.995 3.079 1.492 4.619 1.696 5.248 3.392 10.496 5.087 15.743-1.422-0.157-2.848-0.205-4.282-0.129-2.451-8.621-5.862-16.949-10.157-24.815 4.039-3.056 7.577-6.667 10.989-10.405 1.859-2.037 3.686-4.103 5.56-6.128 0.935-1.011 1.887-2.006 2.856-2.986 0.27-0.273 2.51-2.689 2.692-2.588 0.477 0.262 0.936 0.182 1.276-0.066 0.687 0.264 1.401 0.604 1.87 1.043 0.046 0.349 0.231 0.698 0.522 0.929C33.878 26.937 33.712 27.397 33.234 27.923z" fill="#00d1cd" data-fill-palette-color="accent"></path><path d="M73.025 24.131c-0.628-0.431-1.255-0.862-1.883-1.294-0.093-0.548-0.593-0.988-1.209-1.044-4.222-0.383-8.404-1.033-12.546-1.937-1.24-0.271-1.903 1.213-1.301 1.971-2.279 5.073-5.023 9.909-7.766 14.741-2.785 4.905-5.472 9.857-7.985 14.908-4.998 10.046-9.345 20.418-13.054 31.006-0.221 0.631 0.245 1.331 0.853 1.502 1.501 0.423 2.999 0.867 4.508 1.26 0.183 0.048 0.365 0.079 0.545 0.098 0.007 0.191 0.07 0.394 0.206 0.6 1.401 2.118 4.02 1.61 5.61 0.016 0.933-0.935 1.622-2.187 2.338-3.285 0.917-1.406 1.797-2.836 2.682-4.262 3.535-5.693 6.978-11.442 10.34-17.239 6.724-11.593 13.086-23.395 19.1-35.371C73.779 25.173 73.6 24.526 73.025 24.131zM30.034 82.008c3.606-10.148 7.816-20.066 12.613-29.709 4.955-9.959 11.13-19.318 15.659-29.483 0.039-0.087 0.067-0.173 0.086-0.258 3.156 0.636 6.339 1.125 9.539 1.475C61.976 34.312 56.021 44.592 50.065 54.871c-3.176 5.483-6.352 10.965-9.528 16.448l-4.642 8.013c-0.407 0.703-0.814 1.406-1.222 2.108-0.3 0.517-0.617 1.58-1.382 1.45C32.203 82.705 31.111 82.349 30.034 82.008zM54.353 56.293c-3.012 5.278-6.102 10.512-9.257 15.707-1.532 2.522-3.082 5.033-4.649 7.533-0.416 0.664-3.874 6.798-4.946 5.176-0.018-0.027-0.037-0.052-0.056-0.076 0.112-0.102 0.22-0.214 0.321-0.338 0.902-1.101 1.525-2.503 2.237-3.731l2.687-4.639c3.339-5.764 6.678-11.527 10.018-17.291 6.476-11.178 12.952-22.356 19.427-33.534 0.235 0.162 0.47 0.323 0.706 0.485C65.608 35.96 60.112 46.201 54.353 56.293z" fill="#00d1cd" data-fill-palette-color="accent"></path><path d="M94.075 62.72c-0.634-1.891-1.24-3.788-1.794-5.704-1.066-3.683-1.933-7.421-2.642-11.189-0.34-1.808-0.629-3.626-0.886-5.448-0.246-1.743-0.243-3.593-1.01-5.205-0.625-1.314-2.263-1.942-3.504-2.466-1.753-0.74-3.57-1.249-5.445-1.559-2.194-0.363-6.561-0.907-6.695 2.401-0.004 0.108 0.004 0.208 0.021 0.301-0.078 0.164-0.123 0.342-0.114 0.515 0.232 4.333 0.81 8.636 1.723 12.877 0.477 2.214 1.069 4.401 1.738 6.564 0.661 2.139 1.567 4.193 2.241 6.323 0.245 0.773-1.157 2.123-1.566 2.679-0.638 0.868-1.283 1.73-1.932 2.59-1.42 1.882-2.872 3.739-4.344 5.58-2.883 3.604-5.871 7.124-8.941 10.569-0.586 0.658-0.4 1.813 0.539 2.04 2.329 0.565 4.659 1.131 6.988 1.697 0.406 0.099 0.898 0.014 1.188-0.314 0.05-0.057 0.101-0.112 0.152-0.169 2.332 1.07 4.883-0.248 6.804-1.94 2.999-2.641 5.875-5.437 8.806-8.153 1.431-1.326 2.862-2.652 4.294-3.978 1.332-1.234 2.994-2.424 4.033-3.927C94.632 65.498 94.563 64.177 94.075 62.72zM71.881 72.345c1.41-1.763 2.793-3.548 4.159-5.346 0.745-0.98 1.48-1.967 2.21-2.957 0.6-0.813 1.529-1.745 1.785-2.751 0.504-1.977-0.869-4.151-1.507-5.982-0.794-2.281-1.461-4.605-2.037-6.95-1.064-4.324-1.707-8.738-1.99-13.179 0.227-0.133 0.439-0.295 0.643-0.486 0.245 0.151 0.559 0.203 0.925 0.085 2.329-0.747 3.799 1.615 4.411 3.496 0.79 2.429 1.174 5.029 1.779 7.511 1.236 5.074 2.676 10.098 4.282 15.067 0.355 1.099 0.962 2.135 0.046 3.085-0.833 0.865-1.749 1.662-2.613 2.495-1.898 1.829-3.766 3.689-5.613 5.569-3.297 3.357-6.498 6.806-9.624 10.322-0.125 0.1-0.233 0.22-0.316 0.352-0.022 0.025-0.044 0.049-0.065 0.073-1.44-0.35-2.88-0.699-4.321-1.048C66.72 78.641 69.338 75.524 71.881 72.345zM91.344 65.859c-2.137 2.296-4.651 4.328-6.953 6.461-2.385 2.21-4.771 4.42-7.156 6.63-1.172 1.086-3.617 4.03-5.68 3.882 3.3-3.669 6.686-7.259 10.167-10.757 2.078-2.088 4.192-4.14 6.334-6.163 0.74-0.699 1.46-1.555 1.501-2.626 0.053-1.379-0.539-2.695-0.953-3.986-1.837-5.727-3.411-11.537-4.756-17.398-0.576-2.508-0.91-5.322-2.56-7.402-0.092-0.116-0.189-0.229-0.289-0.339 0.299 0.074 0.519 0.134 0.621 0.165 1.255 0.389 2.783 0.868 3.781 1.763 0.896 0.803 0.747 3.066 0.892 4.158 0.804 6.04 2.068 12.007 3.762 17.86 0.384 1.326 0.798 2.643 1.226 3.954C91.737 63.453 92.479 64.64 91.344 65.859z" fill="#00d1cd" data-fill-palette-color="accent"></path></svg></g></svg></g></svg></g></svg></g><defs></defs></svg>