<svg viewBox="0 0 395.52 169.57076499724823" height="169.57076499724823" width="395.52" data-background-color="#444444" preserveAspectRatio="xMidYMid meet" id="tight-bounds" xmlns="http://www.w3.org/2000/svg" xmlns:xlink="http://www.w3.org/1999/xlink"><g><svg viewBox="0 0 395.52 169.57076499724823" height="169.57076499724823" width="395.52"><g><svg viewBox="0 0 395.52 169.57076499724823" height="169.57076499724823" width="395.52"><g><svg viewBox="0 0 395.52 169.57076499724823" height="169.57076499724823" width="395.52"><g id="textblocktransform"><svg viewBox="0 0 395.52 169.57076499724823" height="169.57076499724823" width="395.52" id="textblock"><g><svg viewBox="0 0 395.52 169.57076499724823" height="169.57076499724823" width="395.52"><g transform="matrix(1,0,0,1,0,0)"><svg width="395.52" viewBox="0.45000001788139343 -38.45000076293945 91.84000396728516 38.95000076293945" height="169.57076499724823" data-palette-color="#ffffff"><g class="wordmark-text-0" data-fill-palette-color="primary" id="text-0"><path d="M8.5-35.05L8.5-35.05 8.5-7.4Q8.5-4.35 10.55-3.95L10.55-3.95 10.55-2.85 5.5 0Q4.4-0.45 3.45-1.48 2.5-2.5 2.5-3.4L2.5-3.4 2.5-31.05Q2.5-34.1 0.45-34.5L0.45-34.5 0.45-35.6 5.5-38.45Q6.6-38 7.55-36.98 8.5-35.95 8.5-35.05ZM25.75-28.5L25.75-28.5Q26-28.5 27-27.73 28-26.95 29-25.58 30-24.2 30-22.9L30-22.9 30-14.5Q30-13.6 27.35-12.3 24.7-11 22.22-10.18 19.75-9.35 19.55-9.35L19.55-9.35Q19.55-5.5 22.9-4.6L22.9-4.6Q24.55-4.2 26.85-4.2L26.85-4.2 26.85-2.75Q18.65 0 18.1 0L18.1 0Q16.6 0 15.05-2.13 13.5-4.25 13.5-7.1L13.5-7.1 13.5-23.9Q13.5-24.25 19.2-26.38 24.9-28.5 25.75-28.5ZM24-20.55Q24-21.95 23.35-22.93 22.7-23.9 21.7-23.9 20.7-23.9 19.5-23.15L19.5-23.15 19.5-11.6Q24-12.85 24-17L24-17 24-20.55ZM34.75-7.3L34.75-7.3 34.75-23.9Q34.75-24.25 40.45-26.38 46.15-28.5 47-28.5 47.85-28.5 49.57-26.45 51.3-24.4 51.3-22.75L51.3-22.75 51.3-4.65Q51.3-4.25 45.82-2.13 40.35 0 39.12 0 37.9 0 36.32-2.15 34.75-4.3 34.75-7.3ZM43.3-4.6L43.3-4.6Q44.25-4.6 45.25-5.4L45.25-5.4 45.25-20.15Q45.25-23.85 42.7-23.85L42.7-23.85Q41.7-23.85 40.75-23.1L40.75-23.1 40.75-8.3Q40.75-4.6 43.3-4.6ZM63.19-23.65L63.19-23.65Q62.69-23.65 62.29-23.15L62.29-23.15 62.29-9.35Q62.29-5.5 65.59-4.6L65.59-4.6Q67.29-4.2 69.64-4.2L69.64-4.2 69.64-2.75Q61.44 0 60.89 0L60.89 0Q59.39 0 57.84-2.13 56.29-4.25 56.29-7.1L56.29-7.1 56.29-23.9Q56.29-24.25 62.02-26.38 67.74-28.5 68.59-28.5L68.59-28.5Q68.89-28.5 69.29-27.05 69.69-25.6 70.22-23.55 70.74-21.5 71.32-20.53 71.89-19.55 73.49-19.55L73.49-19.55 73.49-18.55Q72.39-18.05 69.77-16.78 67.14-15.5 66.94-15.5L66.94-15.5Q66.19-15.5 65.04-19.58 63.89-23.65 63.19-23.65ZM78.79-10.95L78.79-10.95Q77.54-10.95 76.64-12.85 75.74-14.75 75.74-17.5L75.74-17.5 75.74-22.9Q75.74-23.85 80.99-26.18 86.24-28.5 87.04-28.5L87.04-28.5Q87.49-28.5 87.84-27.98 88.19-27.45 88.39-27.13 88.59-26.8 89.02-26.03 89.44-25.25 89.74-24.75L89.74-24.75Q90.39-23.55 91.39-23.55L91.39-23.55 91.39-22.55Q90.59-22.2 89.29-21.5L89.29-21.5Q86.09-19.75 85.84-19.75L85.84-19.75Q85.09-19.75 84.22-22.2 83.34-24.65 82.64-24.65L82.64-24.65Q81.74-24.65 81.74-23.15L81.74-23.15 81.74-17Q81.74-15 82.64-15L82.64-15Q82.84-15 85.74-16.3 88.64-17.6 89.24-17.6L89.24-17.6Q90.44-17.6 91.37-15.68 92.29-13.75 92.29-10.75L92.29-10.75 92.29-5.1Q92.29-4.15 86.57-1.83 80.84 0.5 79.99 0.5L79.99 0.5Q79.64 0.5 79.32-0.13 78.99-0.75 78.42-2.05 77.84-3.35 77.29-4.25L77.29-4.25Q76.64-5.45 75.64-5.45L75.64-5.45 75.64-6.45Q76.44-6.8 77.79-7.5L77.79-7.5Q80.94-9.25 81.19-9.25L81.19-9.25Q81.94-9.25 83.07-6.3 84.19-3.35 84.89-3.35L84.89-3.35Q85.39-3.35 85.84-3.75 86.29-4.15 86.29-4.85L86.29-4.85 86.29-11.1Q86.29-13.35 85.04-13.35L85.04-13.35Q84.64-13.35 81.89-12.15 79.14-10.95 78.79-10.95Z" fill="#ffffff" data-fill-palette-color="primary"></path></g></svg></g></svg></g></svg></g></svg></g><g></g></svg></g></svg></g><defs></defs></svg>