<?xml version="1.0" standalone="no"?>
   <!DOCTYPE svg PUBLIC "-//W3C//DTD SVG 1.1//EN" 
   "http://www.w3.org/Graphics/SVG/1.1/DTD/svg11.dtd"><svg id="svg" version="1.1" width="3537" height="2928" xmlns="http://www.w3.org/2000/svg"><path d="M557.309 250.274 C 553.985 267.662,572.762 299.452,604.902 330.853 C 636.923 362.138,741.672 435.556,903.123 539.875 C 947.908 568.812,963.765 582.235,958.906 587.094 C 956.459 589.541,881.357 554.372,685.500 459.066 C 650.850 442.205,611.025 423.313,597.000 417.085 C 582.975 410.856,547.779 394.924,518.787 381.681 C 489.795 368.438,459.865 355.495,452.276 352.918 C 432.919 346.346,411.000 343.654,411.000 347.848 C 411.000 349.685,412.825 351.889,415.055 352.744 C 417.531 353.695,418.564 357.160,417.707 361.645 C 416.934 365.684,418.485 372.319,421.151 376.389 C 423.818 380.459,426.000 386.319,426.000 389.411 C 426.000 399.862,446.522 421.624,459.000 424.406 C 459.825 424.590,464.894 428.947,470.265 434.088 C 482.491 445.791,536.290 478.188,570.000 494.147 C 712.913 561.805,765.410 585.995,793.500 597.134 C 828.169 610.881,852.320 628.200,847.561 635.902 C 844.241 641.274,820.260 638.414,787.145 628.696 C 742.788 615.680,666.145 593.866,637.500 586.104 C 622.650 582.081,595.650 574.205,577.500 568.603 C 443.035 527.096,357.052 508.274,312.557 510.606 C 293.831 511.587,291.543 514.616,299.413 528.000 C 312.150 549.663,342.031 567.875,408.000 594.181 C 487.793 626.000,502.814 631.708,553.500 649.477 C 639.233 679.532,667.583 692.219,681.053 706.557 C 696.198 722.678,687.579 722.896,565.500 709.480 C 472.186 699.226,426.613 696.018,362.747 695.207 C 301.075 694.425,297.023 695.437,298.854 711.165 C 300.306 723.636,308.488 733.596,321.000 738.124 C 326.775 740.213,332.850 743.551,334.500 745.541 C 339.086 751.071,364.714 756.967,374.128 754.658 C 382.247 752.666,382.319 752.752,376.500 757.507 C 370.796 762.168,371.165 762.324,384.000 760.662 C 393.152 759.478,396.078 759.843,393.084 761.796 C 389.196 764.333,389.196 764.830,393.084 765.951 C 438.176 778.962,478.927 792.465,502.577 802.230 C 512.520 806.336,529.553 810.607,540.429 811.721 C 569.291 814.678,591.551 806.489,656.382 769.065 C 687.999 750.814,705.000 743.080,705.000 746.949 C 705.000 748.402,700.613 752.639,695.250 756.363 C 689.888 760.088,674.513 773.786,661.083 786.804 C 640.351 806.901,636.730 811.864,637.083 819.692 C 637.452 827.855,635.840 829.748,623.010 836.216 C 615.041 840.233,609.009 844.009,609.607 844.607 C 610.205 845.205,616.523 844.214,623.647 842.406 C 632.198 840.235,637.263 840.134,638.550 842.109 C 641.637 846.845,648.836 848.264,657.446 845.835 C 661.853 844.592,666.685 844.885,668.292 846.492 C 669.887 848.087,683.393 850.536,698.306 851.935 C 713.218 853.334,728.161 855.946,731.513 857.739 C 734.864 859.533,743.260 861.000,750.170 861.000 C 760.787 861.000,762.177 861.672,759.136 865.336 C 753.923 871.618,731.428 878.045,700.500 882.089 C 654.625 888.088,612.480 901.866,597.787 915.669 C 585.478 927.233,590.215 942.985,614.609 971.605 C 630.033 989.702,649.840 1000.400,673.500 1003.413 C 691.570 1005.713,708.000 1010.625,708.000 1013.726 C 708.000 1014.969,704.797 1017.700,700.883 1019.795 C 696.968 1021.890,690.856 1028.781,687.300 1035.107 C 681.226 1045.915,681.153 1046.787,686.094 1049.552 C 691.099 1052.353,691.094 1053.037,685.992 1063.734 L 680.633 1074.973 689.444 1087.237 C 694.291 1093.982,704.734 1103.550,712.651 1108.500 C 726.990 1117.465,727.218 1117.500,772.273 1117.500 C 797.148 1117.500,819.138 1118.562,821.141 1119.859 C 823.704 1121.520,821.262 1125.845,812.891 1134.471 C 806.351 1141.210,801.000 1149.116,801.000 1152.041 C 801.000 1154.965,798.975 1158.135,796.500 1159.085 C 793.265 1160.326,792.000 1165.388,792.000 1177.095 C 792.000 1191.965,792.916 1194.183,802.555 1202.646 C 808.360 1207.743,816.259 1212.704,820.108 1213.670 C 827.813 1215.603,857.244 1211.027,880.295 1204.311 C 888.431 1201.940,903.109 1200.000,912.912 1200.000 C 928.265 1200.000,930.227 1200.612,927.069 1204.417 C 925.053 1206.846,916.450 1212.219,907.952 1216.357 C 869.994 1234.840,851.040 1258.092,847.183 1290.902 C 845.318 1306.775,845.643 1308.040,852.346 1310.997 C 859.107 1313.980,876.129 1325.209,884.171 1331.992 C 886.189 1333.695,891.272 1336.392,895.465 1337.987 C 902.290 1340.582,902.900 1342.070,901.288 1352.193 C 899.538 1363.184,899.972 1363.855,916.844 1376.227 C 926.390 1383.226,938.820 1389.820,944.466 1390.879 L 954.731 1392.805 952.930 1408.152 C 948.908 1442.423,957.129 1455.286,987.427 1462.126 L 1002.371 1465.500 1003.386 1484.451 C 1003.944 1494.874,1004.874 1503.703,1005.451 1504.072 C 1006.028 1504.441,1011.725 1508.593,1018.112 1513.300 C 1028.033 1520.611,1032.510 1521.854,1048.862 1521.834 C 1068.804 1521.809,1070.747 1522.630,1063.856 1528.169 C 1061.577 1530.001,1058.874 1537.158,1057.849 1544.074 C 1055.270 1561.473,1064.953 1573.210,1081.861 1573.179 C 1088.263 1573.167,1095.163 1574.801,1097.196 1576.811 C 1099.229 1578.820,1102.221 1580.922,1103.843 1581.482 C 1105.466 1582.042,1107.039 1590.830,1107.339 1601.011 L 1107.884 1619.522 1120.192 1624.204 C 1147.009 1634.403,1148.295 1634.130,1174.500 1612.635 C 1195.718 1595.231,1211.247 1587.070,1223.250 1587.017 C 1228.971 1586.991,1227.798 1591.892,1218.750 1605.810 C 1211.330 1617.223,1210.507 1621.133,1210.571 1644.671 C 1210.610 1659.065,1212.016 1672.216,1213.696 1673.896 C 1215.376 1675.576,1224.537 1678.514,1234.055 1680.425 C 1251.102 1683.849,1251.562 1683.759,1264.861 1674.385 C 1278.283 1664.924,1284.000 1664.414,1284.000 1672.677 C 1284.000 1680.412,1295.532 1689.000,1305.917 1689.000 C 1311.371 1689.000,1327.234 1684.408,1341.167 1678.796 C 1355.100 1673.183,1371.225 1668.126,1377.000 1667.557 C 1387.466 1666.527,1387.499 1666.561,1387.098 1678.435 C 1386.841 1686.052,1388.354 1691.560,1391.293 1693.709 C 1395.136 1696.519,1395.546 1701.765,1393.791 1725.667 C 1392.010 1749.928,1392.430 1755.002,1396.560 1759.132 C 1399.238 1761.809,1402.682 1764.000,1404.214 1764.000 C 1405.746 1764.000,1407.000 1765.155,1407.000 1766.567 C 1407.000 1767.980,1393.838 1772.193,1377.750 1775.930 C 1361.663 1779.667,1335.675 1786.515,1320.000 1791.147 C 1289.475 1800.168,1231.246 1816.580,1161.000 1835.961 C 1137.075 1842.562,1064.175 1861.531,999.000 1878.113 C 835.618 1919.681,817.040 1924.991,796.720 1935.929 C 773.744 1948.297,765.580 1958.802,770.519 1969.643 C 773.558 1976.312,773.153 1978.764,767.760 1986.337 C 759.339 1998.163,762.027 2005.130,773.998 2002.501 C 785.081 2000.066,785.839 2004.743,775.150 2009.613 L 767.301 2013.190 774.225 2019.195 C 778.034 2022.498,782.916 2024.523,785.075 2023.695 C 787.234 2022.866,789.000 2023.640,789.000 2025.415 C 789.000 2027.190,791.025 2027.865,793.500 2026.915 C 797.526 2025.370,799.367 2028.341,798.355 2034.750 C 797.600 2039.532,804.234 2036.612,814.396 2027.689 C 826.669 2016.913,829.520 2022.708,817.500 2034.000 C 813.375 2037.875,810.000 2042.161,810.000 2043.523 C 810.000 2047.055,821.299 2046.586,828.454 2042.757 C 837.900 2037.702,838.791 2042.152,829.970 2050.327 C 820.137 2059.440,819.874 2062.184,829.055 2059.880 C 842.340 2056.545,840.331 2062.317,825.911 2068.911 C 817.985 2072.535,813.863 2075.613,816.750 2075.750 C 819.638 2075.888,822.062 2078.363,822.139 2081.250 C 822.215 2084.138,825.721 2089.200,829.929 2092.500 C 834.138 2095.800,843.489 2103.460,850.710 2109.522 C 857.931 2115.584,866.575 2121.413,869.919 2122.474 C 877.178 2124.778,877.482 2128.720,871.503 2143.030 C 866.993 2153.823,866.792 2161.487,870.847 2167.979 C 872.042 2169.893,872.111 2173.827,871.000 2176.721 C 869.603 2180.361,870.084 2181.302,872.558 2179.773 C 876.498 2177.338,875.925 2193.273,871.735 2202.651 C 870.470 2205.484,870.650 2211.450,872.136 2215.908 C 875.495 2225.985,895.354 2234.255,903.818 2229.102 C 907.927 2226.600,909.535 2226.903,910.889 2230.432 C 911.853 2232.944,915.535 2235.004,919.071 2235.010 C 922.607 2235.015,938.916 2237.623,955.313 2240.804 C 979.183 2245.435,988.360 2245.990,1001.356 2243.588 C 1010.283 2241.938,1018.230 2241.230,1019.015 2242.015 C 1019.800 2242.800,1018.318 2247.551,1015.721 2252.572 C 1009.144 2265.290,1009.801 2274.135,1018.577 2291.051 C 1026.836 2306.970,1044.844 2318.380,1052.211 2312.362 C 1056.398 2308.941,1071.000 2311.650,1071.000 2315.848 C 1071.000 2317.469,1074.727 2317.512,1080.163 2315.953 C 1087.412 2313.874,1090.466 2314.466,1094.788 2318.788 C 1097.792 2321.792,1100.869 2326.106,1101.626 2328.375 C 1102.481 2330.939,1107.450 2332.500,1114.751 2332.500 C 1124.068 2332.500,1126.328 2333.540,1125.671 2337.523 C 1125.176 2340.516,1127.525 2343.397,1131.484 2344.654 C 1136.471 2346.237,1139.507 2344.984,1143.662 2339.631 C 1146.705 2335.709,1151.659 2329.800,1154.669 2326.500 C 1157.679 2323.200,1162.929 2315.100,1166.336 2308.500 C 1169.743 2301.900,1174.599 2293.800,1177.128 2290.500 C 1181.434 2284.881,1181.610 2285.262,1179.894 2296.500 C 1178.886 2303.100,1175.570 2315.809,1172.523 2324.742 C 1169.477 2333.675,1167.538 2341.538,1168.213 2342.213 C 1168.889 2342.889,1173.642 2341.271,1178.775 2338.616 C 1187.509 2334.100,1188.219 2334.134,1189.835 2339.145 C 1195.209 2355.805,1198.618 2361.922,1204.779 2365.959 C 1208.812 2368.601,1210.943 2372.264,1209.951 2374.849 C 1209.023 2377.267,1209.442 2379.030,1210.882 2378.767 C 1218.313 2377.411,1224.000 2379.504,1224.000 2383.594 C 1224.000 2386.121,1226.025 2388.965,1228.500 2389.915 C 1230.975 2390.865,1233.000 2393.468,1233.000 2395.701 C 1233.000 2397.933,1238.511 2401.410,1245.247 2403.429 C 1255.991 2406.647,1258.846 2406.388,1268.497 2401.314 C 1280.755 2394.869,1314.717 2362.188,1335.157 2337.167 C 1353.369 2314.873,1436.730 2219.991,1459.216 2195.961 C 1486.959 2166.314,1526.310 2119.936,1552.092 2086.500 C 1564.816 2070.000,1586.685 2041.650,1600.692 2023.500 C 1627.457 1988.817,1634.624 1983.968,1653.508 1987.762 C 1658.202 1988.705,1666.892 1986.964,1674.508 1983.555 C 1694.272 1974.707,1709.668 1969.668,1711.461 1971.461 C 1712.347 1972.347,1710.317 1979.302,1706.950 1986.915 C 1699.404 2003.974,1698.568 2019.341,1704.677 2028.666 C 1709.155 2035.499,1710.579 2035.729,1746.746 2035.451 L 1784.181 2035.164 1774.541 2050.332 C 1769.239 2058.674,1765.418 2066.985,1766.050 2068.800 C 1766.683 2070.615,1765.130 2073.817,1762.600 2075.917 C 1756.353 2081.102,1756.713 2101.386,1763.250 2112.504 C 1768.003 2120.588,1769.637 2121.289,1780.500 2119.906 C 1787.100 2119.066,1798.570 2119.306,1805.988 2120.439 C 1818.935 2122.417,1819.583 2123.008,1822.149 2135.178 C 1824.002 2143.966,1826.767 2148.524,1831.161 2150.031 C 1840.332 2153.177,1840.599 2153.214,1856.666 2153.625 C 1870.734 2153.985,1871.407 2154.398,1873.163 2163.750 C 1875.645 2176.970,1893.387 2191.306,1903.975 2188.649 C 1912.518 2186.505,1920.000 2191.190,1920.000 2198.684 C 1920.000 2201.406,1924.148 2208.666,1929.218 2214.816 C 1938.302 2225.837,1938.751 2226.000,1959.968 2225.983 C 1971.811 2225.974,1986.862 2224.478,1993.416 2222.658 C 2004.449 2219.595,2005.672 2219.875,2009.916 2226.425 C 2020.602 2242.918,2036.716 2255.617,2048.161 2256.565 C 2057.360 2257.326,2060.227 2259.171,2063.603 2266.500 C 2065.882 2271.450,2071.894 2279.888,2076.962 2285.250 C 2085.311 2294.083,2087.823 2295.000,2103.683 2295.000 C 2116.476 2295.000,2121.653 2296.211,2122.915 2299.500 C 2123.865 2301.975,2126.027 2304.000,2127.719 2304.000 C 2131.693 2304.000,2141.934 2315.691,2145.079 2323.818 C 2147.255 2329.444,2149.438 2330.009,2165.011 2328.977 C 2174.630 2328.339,2186.550 2326.350,2191.500 2324.557 C 2206.609 2319.083,2221.095 2312.894,2229.463 2308.337 C 2238.604 2303.358,2242.090 2302.809,2239.667 2306.729 C 2236.484 2311.881,2241.608 2318.874,2256.301 2329.430 C 2273.071 2341.478,2275.555 2342.044,2279.649 2334.750 C 2282.324 2329.985,2282.771 2329.953,2284.485 2334.400 C 2286.185 2338.811,2287.770 2338.880,2300.365 2335.090 C 2319.311 2329.388,2322.380 2330.931,2318.331 2344.126 C 2307.683 2378.819,2362.012 2412.192,2401.963 2395.500 C 2416.679 2389.351,2416.673 2389.348,2415.544 2403.750 C 2414.236 2420.436,2423.954 2435.213,2442.063 2444.077 C 2464.377 2455.000,2489.983 2466.000,2493.093 2466.000 C 2506.703 2466.000,2536.298 2438.607,2547.347 2415.784 C 2553.171 2403.752,2577.600 2379.000,2583.650 2379.000 C 2585.193 2379.000,2594.116 2373.143,2603.478 2365.985 C 2639.789 2338.223,2636.734 2343.786,2591.234 2388.280 C 2559.112 2419.691,2543.973 2436.567,2543.984 2440.952 C 2543.993 2444.501,2547.362 2454.626,2551.471 2463.452 C 2555.580 2472.278,2558.955 2481.668,2558.971 2484.319 C 2559.039 2495.601,2579.680 2516.322,2601.678 2527.191 C 2638.133 2545.204,2658.997 2540.573,2671.952 2511.593 C 2675.864 2502.844,2680.189 2496.381,2681.565 2497.231 C 2685.441 2499.627,2701.578 2534.332,2708.891 2556.000 C 2715.782 2576.416,2721.238 2589.920,2729.202 2606.264 C 2734.072 2616.258,2758.560 2641.878,2772.000 2651.040 C 2776.125 2653.851,2780.175 2657.055,2781.000 2658.158 C 2781.825 2659.260,2786.700 2662.314,2791.833 2664.943 C 2800.608 2669.437,2801.546 2669.369,2807.515 2663.808 C 2811.006 2660.555,2816.031 2650.437,2818.681 2641.323 C 2825.025 2619.500,2824.999 2534.682,2818.630 2475.430 C 2813.443 2427.179,2812.562 2380.243,2816.794 2377.627 C 2820.527 2375.320,2846.466 2407.403,2853.074 2422.500 C 2880.373 2484.869,2935.812 2589.846,2958.265 2621.685 C 2972.237 2641.497,3009.611 2672.801,3028.930 2680.873 C 3039.704 2685.375,3040.262 2685.296,3045.712 2678.515 C 3050.566 2672.474,3051.128 2667.960,3049.761 2646.000 C 3047.326 2606.901,3026.422 2530.899,3002.314 2473.500 C 2997.464 2461.950,2985.021 2429.550,2974.664 2401.500 C 2964.308 2373.450,2952.271 2342.103,2947.917 2331.840 C 2935.692 2303.028,2938.679 2274.340,2952.057 2292.076 C 2954.936 2295.892,2964.437 2312.623,2973.171 2329.257 C 3038.648 2453.957,3055.785 2482.511,3076.429 2501.299 C 3091.426 2514.948,3098.682 2517.929,3133.244 2524.643 C 3146.303 2527.180,3158.127 2529.961,3159.521 2530.822 C 3164.979 2534.195,3174.000 2528.469,3174.000 2521.631 C 3174.000 2514.124,3154.210 2454.823,3142.116 2426.087 C 3134.973 2409.117,3082.366 2312.549,3067.025 2288.247 C 3057.727 2273.519,3059.552 2270.454,3069.752 2283.668 C 3088.369 2307.788,3155.242 2372.136,3168.183 2378.382 C 3182.424 2385.255,3227.125 2393.129,3234.922 2390.137 C 3237.386 2389.191,3240.310 2383.046,3241.419 2376.481 C 3243.633 2363.374,3239.439 2352.528,3224.990 2334.000 C 3220.486 2328.225,3215.873 2320.520,3214.739 2316.879 C 3212.772 2310.563,3187.104 2281.601,3139.060 2231.491 C 3116.460 2207.918,3110.873 2199.745,3124.905 2210.782 C 3131.392 2215.885,3136.906 2216.967,3155.655 2216.816 C 3188.459 2216.551,3220.206 2210.600,3221.382 2204.494 C 3222.456 2198.919,3193.902 2178.351,3140.559 2146.275 C 3096.179 2119.589,3047.364 2087.636,3048.794 2086.206 C 3049.413 2085.587,3065.351 2092.887,3084.210 2102.430 C 3144.943 2133.160,3164.806 2135.978,3202.376 2119.195 C 3222.898 2110.027,3226.698 2106.000,3214.828 2106.000 C 3202.585 2106.000,3152.990 2091.859,3120.000 2078.961 C 3082.217 2064.189,3040.676 2043.434,3006.000 2022.005 C 2991.975 2013.338,2963.625 1997.368,2943.000 1986.517 C 2922.375 1975.666,2899.088 1962.209,2891.250 1956.613 C 2883.413 1951.016,2877.000 1947.351,2877.000 1948.469 C 2877.000 1949.586,2873.288 1947.642,2868.750 1944.148 C 2837.521 1920.103,2784.210 1887.000,2776.716 1887.000 C 2774.122 1887.000,2772.000 1885.759,2772.000 1884.243 C 2772.000 1881.266,2725.308 1854.650,2710.413 1849.137 C 2705.416 1847.287,2694.323 1842.224,2685.763 1837.887 C 2677.203 1833.549,2666.105 1830.000,2661.100 1830.000 C 2656.095 1830.000,2652.000 1828.493,2652.000 1826.650 C 2652.000 1824.716,2649.317 1824.002,2645.654 1824.960 C 2642.164 1825.872,2637.102 1825.469,2634.404 1824.063 C 2631.707 1822.657,2619.375 1818.507,2607.000 1814.840 C 2594.625 1811.173,2570.325 1802.079,2553.000 1794.631 C 2535.675 1787.183,2505.975 1775.139,2487.000 1767.867 C 2428.648 1745.503,2417.758 1741.189,2379.000 1725.080 C 2358.375 1716.507,2323.950 1702.310,2302.500 1693.531 C 2253.855 1673.622,2211.000 1653.074,2211.000 1649.660 C 2211.000 1645.330,2220.831 1634.945,2233.500 1625.893 C 2240.100 1621.178,2251.481 1611.677,2258.791 1604.781 C 2274.511 1589.950,2287.397 1584.000,2303.798 1584.000 C 2312.437 1584.000,2316.627 1585.567,2318.789 1589.606 C 2320.439 1592.689,2321.026 1595.974,2320.094 1596.906 C 2319.162 1597.838,2319.378 1600.185,2320.575 1602.121 C 2324.710 1608.812,2327.907 1598.042,2327.954 1577.259 C 2327.998 1558.083,2327.412 1556.367,2316.838 1544.662 C 2305.387 1531.988,2272.703 1509.000,2266.133 1509.000 C 2264.112 1509.000,2246.660 1502.107,2227.352 1493.682 L 2192.246 1478.364 2146.873 1475.470 C 2114.130 1473.382,2093.892 1473.562,2074.170 1476.118 C 2055.602 1478.525,2045.023 1478.694,2041.170 1476.644 C 2033.488 1472.556,1996.472 1463.433,1991.497 1464.401 C 1982.643 1466.124,1958.563 1460.352,1956.938 1456.118 C 1955.986 1453.637,1953.230 1452.421,1950.731 1453.380 C 1942.966 1456.360,1860.258 1369.855,1816.034 1312.500 C 1773.317 1257.101,1658.064 1074.209,1636.467 1027.551 C 1631.108 1015.973,1619.085 996.375,1609.749 984.000 C 1587.396 954.370,1491.897 857.844,1486.851 859.781 C 1484.712 860.601,1481.230 859.187,1479.113 856.637 C 1476.997 854.086,1476.167 852.000,1477.269 852.000 C 1482.114 852.000,1462.861 836.170,1455.582 834.169 C 1450.516 832.776,1447.810 830.172,1448.331 827.192 C 1448.833 824.325,1444.310 819.543,1436.938 815.147 C 1419.169 804.551,1349.405 738.415,1272.078 658.863 C 1105.009 486.984,1059.709 444.809,996.725 402.507 C 956.399 375.424,941.455 368.771,947.870 380.758 C 949.652 384.087,949.799 386.934,948.218 387.508 C 945.348 388.549,959.970 422.083,964.790 425.514 C 966.325 426.606,972.861 434.534,979.316 443.131 C 985.770 451.728,992.839 459.448,995.025 460.287 C 997.211 461.125,999.000 463.608,999.000 465.804 C 999.000 471.062,1093.359 563.095,1119.000 582.846 C 1132.187 593.003,1126.074 593.326,1101.669 583.762 C 1089.919 579.157,1044.145 549.502,975.850 502.248 C 719.775 325.068,665.056 289.249,599.783 256.072 C 569.920 240.893,559.377 239.454,557.309 250.274 M781.500 858.000 C 780.480 859.650,776.013 860.840,771.573 860.645 L 763.500 860.290 772.500 858.000 C 777.450 856.740,781.917 855.550,782.427 855.355 C 782.937 855.160,782.520 856.350,781.500 858.000 " stroke="none" fill="black" fill-rule="evenodd"/></svg>