<svg viewBox="0 0 395.52 149.86956536200077" height="149.86956536200077" width="395.52" data-background-color="#ea3c12" preserveAspectRatio="xMidYMid meet" id="tight-bounds" xmlns="http://www.w3.org/2000/svg" xmlns:xlink="http://www.w3.org/1999/xlink"><g><svg viewBox="0 0 395.52 149.86956536200077" height="149.86956536200077" width="395.52"><g transform="matrix(1,0,0,1,0,116.98652787252907)"><svg viewBox="0 0 395.52 32.8830374894717" height="32.8830374894717" width="395.52"><g id="textblocktransform"><svg viewBox="0 0 395.52 32.8830374894717" height="32.8830374894717" width="395.52" id="textblock"><g><svg viewBox="0 0 395.52 32.8830374894717" height="32.8830374894717" width="395.52"><g transform="matrix(1,0,0,1,0,0)"><svg width="395.52" viewBox="0.6303902864456177 -36.50898742675781 629.110107421875 52.30341339111328" height="32.8830374894717" data-palette-color="#ffbe79"><path d="M20.342 11.153l-16.282 1.376-0.65-7.692 14.787-1.25c0.631-0.053 1.158-0.232 1.58-0.535 0.423-0.303 0.747-0.699 0.974-1.187 0.227-0.481 0.318-0.987 0.273-1.518v0c-0.048-0.565-0.224-1.065-0.528-1.501-0.305-0.443-0.691-0.778-1.159-1.006-0.468-0.228-1.017-0.315-1.648-0.262v0l-4.913 0.415c-2.086 0.176-4.007-0.076-5.764-0.757-1.758-0.688-3.206-1.76-4.346-3.215-1.139-1.449-1.802-3.267-1.986-5.452v0c-0.182-2.152 0.142-4.063 0.97-5.732 0.822-1.669 2.006-3.016 3.552-4.044 1.545-1.034 3.311-1.635 5.297-1.802v0l15.585-1.318 0.65 7.693-14.389 1.216c-0.531 0.045-0.992 0.211-1.383 0.498-0.391 0.281-0.686 0.63-0.885 1.049-0.199 0.412-0.278 0.867-0.236 1.364v0c0.042 0.498 0.197 0.943 0.465 1.336 0.267 0.392 0.618 0.697 1.05 0.915 0.433 0.211 0.915 0.294 1.447 0.249v0l5.211-0.441c2.318-0.196 4.358 0.066 6.118 0.788 1.76 0.714 3.166 1.803 4.22 3.266 1.06 1.456 1.678 3.227 1.854 5.312v0c0.202 2.385-0.114 4.469-0.946 6.252-0.832 1.79-2.032 3.192-3.599 4.208-1.56 1.015-3.333 1.606-5.319 1.775zM58.369 8.167l-5.315 0.405c-2.981 0.194-5.68-0.049-8.099-0.727-2.412-0.685-4.505-1.743-6.279-3.172-1.774-1.429-3.183-3.164-4.227-5.204-1.037-2.034-1.652-4.307-1.844-6.82v0c-0.192-2.519 0.071-4.863 0.789-7.03 0.724-2.175 1.854-4.103 3.39-5.784 1.537-1.682 3.445-3.05 5.725-4.107 2.286-1.057 4.919-1.699 7.896-1.925v0l5.315-0.405 0.586 7.698-5.015 0.382c-1.555 0.118-2.919 0.473-4.091 1.064-1.172 0.591-2.136 1.356-2.894 2.296-0.764 0.941-1.314 2.012-1.651 3.215-0.342 1.21-0.462 2.496-0.358 3.858v0c0.103 1.356 0.416 2.606 0.938 3.75 0.515 1.138 1.221 2.113 2.118 2.927 0.891 0.815 1.961 1.425 3.209 1.832 1.248 0.406 2.649 0.55 4.205 0.432v0l5.015-0.382zM71.777 7.259l-9.489 0.642-2.354-34.79 16.153-1.093c2.454-0.166 4.708 0.206 6.761 1.116 2.059 0.91 3.75 2.242 5.072 3.997 1.315 1.762 2.056 3.867 2.221 6.314v0c0.144 2.122-0.23 4.105-1.121 5.949-0.891 1.838-2.145 3.362-3.76 4.575v0l2.597 3.713c0.22 0.286 0.458 0.494 0.713 0.623 0.263 0.136 0.611 0.189 1.044 0.16v0l2.773-0.188 0.511 7.553-5.168 0.35c-1.656 0.112-3.155-0.161-4.495-0.819-1.341-0.658-2.401-1.558-3.18-2.701v0l-3.932-5.828c-0.2 0.013-0.399 0.027-0.599 0.04-0.2 0.013-0.382 0.026-0.549 0.038v0l-3.881 0.262zM69.944-19.829l0.639 9.448 5.667-0.383c0.831-0.056 1.58-0.301 2.246-0.733 0.673-0.426 1.201-1.02 1.583-1.781 0.383-0.754 0.542-1.614 0.477-2.578v0c-0.065-0.958-0.337-1.771-0.816-2.441-0.479-0.662-1.081-1.163-1.806-1.501-0.717-0.332-1.492-0.47-2.323-0.414v0zM111.213 5.376v0c-2.948 0.171-5.592-0.266-7.93-1.312-2.338-1.046-4.226-2.616-5.662-4.709-1.437-2.093-2.242-4.618-2.414-7.573v0l-1.217-20.935 9.404-0.546 1.243 21.383c0.067 1.158 0.368 2.196 0.902 3.113 0.534 0.917 1.247 1.627 2.138 2.13 0.897 0.495 1.924 0.709 3.082 0.642v0c1.198-0.07 2.21-0.402 3.037-0.998 0.833-0.603 1.452-1.39 1.856-2.362 0.411-0.972 0.583-2.037 0.516-3.195v0l-1.244-21.384 9.405-0.547 1.217 20.935c0.172 2.955-0.328 5.555-1.5 7.8-1.165 2.245-2.848 4.022-5.049 5.332-2.201 1.31-4.796 2.052-7.784 2.226zM156.81 3.11v0c-2.051 0.093-3.986-0.253-5.803-1.038-1.81-0.779-3.293-1.973-4.446-3.583-1.154-1.609-1.783-3.56-1.887-5.851v0l-0.648-14.335c-0.022-0.493-0.152-0.927-0.39-1.304-0.23-0.37-0.533-0.647-0.908-0.83-0.375-0.183-0.793-0.264-1.252-0.243v0c-0.466 0.021-0.878 0.14-1.236 0.356-0.357 0.216-0.64 0.519-0.849 0.909-0.216 0.397-0.312 0.842-0.29 1.335v0l1.119 24.735-9.21 0.416-1.104-24.385c-0.102-2.258 0.342-4.24 1.332-5.946 0.984-1.706 2.341-3.056 4.072-4.048 1.737-0.993 3.668-1.537 5.792-1.634v0c2.124-0.096 4.086 0.272 5.886 1.105 1.8 0.833 3.266 2.054 4.4 3.665 1.134 1.61 1.752 3.544 1.854 5.802v0l0.649 14.336c0.021 0.466 0.157 0.884 0.407 1.252 0.25 0.369 0.563 0.652 0.939 0.849 0.376 0.203 0.777 0.295 1.204 0.276v0c0.433-0.02 0.834-0.148 1.204-0.385 0.377-0.231 0.673-0.541 0.889-0.931 0.209-0.39 0.303-0.818 0.282-1.284v0l-0.649-14.336c-0.102-2.258 0.342-4.24 1.332-5.946 0.984-1.706 2.344-3.056 4.082-4.049 1.73-0.993 3.658-1.537 5.782-1.633v0c2.091-0.095 4.037 0.274 5.836 1.107 1.8 0.833 3.266 2.054 4.4 3.665 1.141 1.61 1.762 3.544 1.864 5.802v0l1.104 24.385-9.161 0.415-1.124-24.835c-0.021-0.46-0.156-0.867-0.406-1.223-0.25-0.356-0.559-0.625-0.927-0.809-0.375-0.183-0.779-0.265-1.212-0.245v0c-0.466 0.021-0.885 0.14-1.256 0.357-0.371 0.217-0.657 0.514-0.86 0.89-0.197 0.376-0.284 0.794-0.264 1.253v0l0.654 14.435c0.104 2.291-0.353 4.29-1.371 5.998-1.024 1.708-2.395 3.031-4.114 3.97-1.719 0.945-3.624 1.465-5.716 1.56zM196.887 0.884l-9.505 0.311-1.141-34.851 15.282-0.501c2.459-0.081 4.702 0.38 6.729 1.381 2.027 0.994 3.658 2.418 4.892 4.272 1.241 1.854 1.903 4.04 1.986 6.558v0c0.081 2.459-0.437 4.67-1.554 6.635-1.11 1.964-2.643 3.518-4.6 4.663-1.957 1.145-4.165 1.757-6.623 1.838v0l-5.777 0.189zM195.999-26.252l0.325 9.955 4.738-0.155c0.86-0.028 1.633-0.25 2.319-0.667 0.68-0.422 1.217-1.014 1.613-1.773 0.389-0.76 0.566-1.656 0.533-2.689v0c-0.035-1.059-0.271-1.956-0.709-2.688-0.444-0.733-1.019-1.281-1.725-1.645-0.712-0.357-1.498-0.521-2.357-0.493v0zM241.943-0.351l-3.839 0.092c-2.159 0.051-4.087-0.376-5.782-1.283-1.702-0.906-3.046-2.162-4.031-3.766-0.985-1.604-1.502-3.419-1.55-5.444v0l-0.389-16.386-9.258 0.22-0.183-7.718 27.882-0.662 0.184 7.717-9.108 0.217 0.405 17.035c0.016 0.66 0.259 1.218 0.73 1.673 0.478 0.455 1.033 0.676 1.666 0.661v0l3.089-0.074zM269.185-0.826l-20.967 0.346-0.128-7.719 5.68-0.094-0.321-19.427-5.68 0.094-0.127-7.719 20.967-0.347 0.128 7.719-5.72 0.095 0.321 19.427 5.72-0.094zM290.988-0.339v0c-2.753 0.02-5.28-0.418-7.58-1.315-2.293-0.897-4.269-2.162-5.928-3.797-1.659-1.628-2.953-3.535-3.882-5.722-0.929-2.187-1.403-4.557-1.422-7.109v0c-0.019-2.56 0.421-4.947 1.318-7.16 0.897-2.22 2.163-4.149 3.798-5.788 1.635-1.639 3.592-2.923 5.872-3.853 2.287-0.93 4.807-1.405 7.56-1.425v0c2.793-0.02 5.33 0.418 7.609 1.314 2.28 0.897 4.256 2.152 5.928 3.767 1.672 1.615 2.966 3.525 3.882 5.732 0.909 2.2 1.373 4.58 1.392 7.14v0c0.019 2.553-0.411 4.93-1.288 7.129-0.884 2.2-2.15 4.126-3.798 5.778-1.648 1.659-3.605 2.953-5.872 3.883-2.267 0.93-4.797 1.405-7.589 1.426zM290.93-8.209v0c1.367-0.01 2.605-0.276 3.714-0.797 1.103-0.528 2.057-1.268 2.864-2.221 0.813-0.953 1.422-2.044 1.826-3.274 0.404-1.23 0.601-2.558 0.591-3.984v0c-0.01-1.433-0.227-2.768-0.649-4.005-0.422-1.244-1.047-2.329-1.874-3.257-0.82-0.921-1.785-1.634-2.895-2.139-1.117-0.512-2.359-0.763-3.726-0.753v0c-1.327 0.01-2.551 0.279-3.674 0.807-1.13 0.522-2.088 1.249-2.874 2.181-0.793 0.939-1.399 2.034-1.816 3.284-0.424 1.243-0.631 2.581-0.621 4.014v0c0.01 1.427 0.237 2.752 0.679 3.975 0.436 1.224 1.057 2.306 1.864 3.247 0.8 0.941 1.769 1.667 2.906 2.179 1.13 0.505 2.359 0.753 3.685 0.743zM328.608-0.468v0c-2.953-0.009-5.565-0.606-7.834-1.793-2.27-1.187-4.058-2.869-5.366-5.046-1.307-2.177-1.956-4.746-1.947-7.706v0l0.061-20.97 9.42 0.028-0.063 21.42c-0.003 1.16 0.234 2.214 0.711 3.162 0.477 0.948 1.145 1.7 2.004 2.256 0.865 0.549 1.878 0.826 3.037 0.829v0c1.2 0.004 2.231-0.267 3.093-0.811 0.868-0.551 1.534-1.299 1.996-2.244 0.469-0.945 0.706-1.998 0.709-3.158v0l0.063-21.42 9.42 0.027-0.061 20.97c-0.009 2.96-0.666 5.525-1.973 7.694-1.3 2.17-3.088 3.841-5.365 5.015-2.277 1.173-4.912 1.756-7.905 1.747zM365.502-0.75l-16.339-0.205 0.097-7.72 14.839 0.187c0.633 0.008 1.175-0.119 1.625-0.38 0.45-0.261 0.811-0.623 1.083-1.087 0.272-0.457 0.412-0.952 0.419-1.484v0c0.007-0.567-0.12-1.082-0.381-1.545-0.261-0.47-0.613-0.841-1.056-1.114-0.443-0.272-0.982-0.412-1.615-0.42v0l-4.929-0.062c-2.093-0.026-3.981-0.463-5.664-1.311-1.683-0.855-3.021-2.061-4.015-3.621-0.994-1.553-1.477-3.425-1.45-5.618v0c0.027-2.16 0.534-4.03 1.521-5.612 0.98-1.581 2.289-2.808 3.927-3.681 1.638-0.879 3.453-1.307 5.446-1.281v0l15.639 0.196-0.097 7.719-14.439-0.181c-0.533-0.007-1.008 0.114-1.425 0.362-0.416 0.241-0.744 0.561-0.982 0.958-0.238 0.39-0.361 0.836-0.366 1.335v0c-0.006 0.5 0.105 0.958 0.332 1.375 0.228 0.416 0.547 0.754 0.958 1.012 0.41 0.252 0.882 0.381 1.415 0.388v0l5.229 0.065c2.326 0.029 4.331 0.488 6.014 1.376 1.682 0.881 2.977 2.101 3.884 3.659 0.914 1.552 1.358 3.374 1.331 5.467v0c-0.03 2.393-0.546 4.437-1.547 6.131-1.001 1.701-2.331 2.981-3.988 3.84-1.651 0.859-3.473 1.276-5.466 1.252zM414.935 0.284l-21.363-0.546 0.89-34.858 20.763 0.53c1.826 0.047 3.469 0.479 4.928 1.296 1.453 0.817 2.611 1.934 3.476 3.35 0.857 1.422 1.262 3.08 1.214 4.972v0c-0.026 1.026-0.248 2.008-0.666 2.944-0.424 0.936-0.979 1.769-1.664 2.498-0.679 0.73-1.492 1.349-2.438 1.859v0c1.087 0.528 2.026 1.232 2.817 2.112 0.791 0.887 1.396 1.883 1.814 2.988 0.419 1.104 0.612 2.273 0.581 3.506v0c-0.049 1.926-0.549 3.597-1.499 5.013-0.95 1.423-2.198 2.511-3.744 3.266-1.547 0.761-3.25 1.117-5.109 1.07zM403.433-13.915l-0.162 6.378 9.567 0.245c0.626 0.016 1.17-0.114 1.63-0.389 0.454-0.269 0.82-0.649 1.099-1.142 0.279-0.486 0.426-1.029 0.442-1.63v0c0.015-0.6-0.104-1.133-0.359-1.599-0.255-0.473-0.602-0.856-1.041-1.147-0.446-0.298-0.982-0.455-1.609-0.471v0zM403.772-27.16l-0.153 5.978 8.517 0.217c0.566 0.014 1.077-0.113 1.53-0.381 0.454-0.275 0.813-0.639 1.079-1.093 0.258-0.46 0.395-0.957 0.408-1.49v0c0.014-0.533-0.097-1.026-0.333-1.479-0.242-0.453-0.573-0.818-0.992-1.095-0.426-0.278-0.939-0.424-1.539-0.44v0zM444.207 1.826v0c-2.951-0.104-5.542-0.786-7.772-2.046-2.23-1.26-3.963-2.999-5.199-5.217-1.236-2.218-1.801-4.807-1.697-7.765v0l0.742-20.957 9.414 0.333-0.757 21.407c-0.041 1.159 0.162 2.22 0.608 3.183 0.446 0.963 1.089 1.736 1.929 2.32 0.847 0.577 1.85 0.886 3.009 0.927v0c1.199 0.042 2.238-0.194 3.117-0.711 0.886-0.522 1.575-1.248 2.068-2.178 0.5-0.93 0.77-1.974 0.811-3.133v0l0.758-21.407 9.414 0.333-0.742 20.957c-0.105 2.958-0.845 5.5-2.221 7.626-1.369 2.126-3.211 3.739-5.524 4.838-2.314 1.099-4.966 1.595-7.958 1.49zM473.914 2.421l-9.5-0.431 1.578-34.834 16.173 0.733c2.457 0.111 4.655 0.735 6.593 1.87 1.944 1.136 3.474 2.65 4.589 4.543 1.109 1.899 1.607 4.074 1.496 6.524v0c-0.096 2.124-0.691 4.053-1.784 5.785-1.093 1.726-2.51 3.1-4.251 4.122v0l2.162 3.982c0.186 0.309 0.399 0.542 0.639 0.7 0.246 0.165 0.586 0.257 1.019 0.276v0l2.777 0.126-0.343 7.562-5.175-0.234c-1.658-0.075-3.117-0.515-4.374-1.32-1.258-0.804-2.21-1.819-2.856-3.042v0l-3.251-6.234c-0.2-0.009-0.4-0.018-0.599-0.027-0.2-0.009-0.383-0.017-0.55-0.025v0l-3.886-0.176zM475.143-24.701l-0.429 9.46 5.674 0.257c0.832 0.038 1.604-0.121 2.314-0.476 0.716-0.348 1.308-0.878 1.774-1.591 0.466-0.706 0.721-1.542 0.764-2.508v0c0.043-0.959-0.135-1.798-0.536-2.517-0.402-0.712-0.943-1.277-1.625-1.695-0.675-0.411-1.429-0.635-2.262-0.673v0zM522.975 15.77v0c-2.117-0.118-3.933-0.603-5.448-1.455-1.522-0.846-2.658-1.971-3.407-3.375-0.756-1.411-1.084-3.012-0.985-4.802v0c0.016-0.293 0.043-0.599 0.082-0.917 0.031-0.312 0.072-0.634 0.123-0.965v0c-2.376-0.266-4.533-0.91-6.472-1.933-1.939-1.023-3.594-2.36-4.965-4.012-1.37-1.659-2.396-3.562-3.077-5.71-0.681-2.155-0.955-4.44-0.82-6.856v0c0.135-2.423 0.695-4.679 1.679-6.767 0.985-2.095 2.334-3.91 4.049-5.443 1.715-1.534 3.716-2.701 6.004-3.502 2.288-0.807 4.811-1.134 7.567-0.981v0c2.749 0.153 5.217 0.731 7.405 1.735 2.194 1.004 4.059 2.339 5.595 4.007 1.536 1.668 2.684 3.595 3.444 5.781 0.76 2.186 1.068 4.556 0.926 7.112v0l-1.031 18.502c-0.1 1.791-0.566 3.444-1.398 4.96-0.832 1.516-2.023 2.695-3.572 3.536-1.543 0.849-3.443 1.21-5.699 1.085zM523.023 7.891v0c0.559 0.031 1.028-0.166 1.405-0.593 0.371-0.433 0.578-1.029 0.621-1.788v0l0.421-7.559c-0.871 0.646-1.565 1.312-2.084 1.997-0.519 0.686-0.93 1.354-1.234 2.005-0.303 0.651-0.511 1.264-0.623 1.838-0.119 0.574-0.19 1.078-0.214 1.511v0c-0.03 0.533 0.039 0.984 0.205 1.353 0.159 0.376 0.367 0.671 0.621 0.886 0.255 0.215 0.549 0.331 0.882 0.35zM515.176-3.524v0c0.233 0.013 0.467 0.009 0.702-0.011 0.228-0.021 0.444-0.059 0.647-0.114v0c0.682-0.857 1.461-1.718 2.337-2.584 0.883-0.866 1.843-1.677 2.88-2.433 1.044-0.756 2.13-1.437 3.259-2.042v0l0.144-2.586c0.074-1.325-0.071-2.565-0.434-3.72-0.37-1.149-0.921-2.161-1.654-3.037-0.733-0.869-1.625-1.573-2.676-2.112-1.051-0.546-2.206-0.854-3.464-0.924v0c-1.265-0.07-2.44 0.114-3.526 0.555-1.093 0.44-2.053 1.077-2.881 1.912-0.828 0.835-1.498 1.846-2.012 3.033-0.513 1.18-0.809 2.469-0.887 3.867v0c-0.076 1.358 0.054 2.627 0.389 3.807 0.328 1.187 0.828 2.223 1.5 3.109 0.665 0.885 1.48 1.601 2.444 2.149 0.964 0.554 2.041 0.932 3.232 1.131zM563.082 7.463l-15.118-0.989c-1.956-0.128-3.717-0.684-5.282-1.669-1.566-0.984-2.77-2.279-3.614-3.884-0.844-1.599-1.202-3.376-1.074-5.331v0c0.098-1.49 0.522-2.879 1.275-4.166 0.752-1.28 1.753-2.344 3.004-3.191v0c-0.999-0.967-1.784-2.094-2.354-3.381-0.564-1.28-0.803-2.585-0.716-3.915v0c0.126-1.923 0.703-3.598 1.732-5.027 1.022-1.43 2.356-2.521 4.003-3.276 1.647-0.761 3.414-1.079 5.304-0.956v0l15.117 0.99-0.504 7.703-13.222-0.865c-0.599-0.039-1.145 0.042-1.639 0.244-0.494 0.201-0.898 0.509-1.213 0.922-0.307 0.407-0.48 0.911-0.52 1.51v0c-0.037 0.565 0.071 1.064 0.323 1.494 0.259 0.431 0.62 0.789 1.083 1.073 0.463 0.277 0.994 0.436 1.592 0.475v0l11.476 0.751-0.501 7.654-11.376-0.745c-0.632-0.041-1.206 0.048-1.721 0.268-0.508 0.214-0.921 0.544-1.238 0.991-0.309 0.441-0.484 0.96-0.523 1.56v0c-0.039 0.599 0.066 1.13 0.317 1.594 0.257 0.464 0.623 0.839 1.099 1.124 0.483 0.279 1.04 0.439 1.672 0.48v0l13.122 0.859zM576.92 8.491l-9.484-0.705 2.586-34.774 16.145 1.2c2.453 0.182 4.632 0.869 6.535 2.061 1.91 1.192 3.395 2.749 4.456 4.673 1.053 1.93 1.489 4.118 1.307 6.565v0c-0.158 2.121-0.808 4.031-1.95 5.731-1.142 1.693-2.598 3.026-4.369 3.997v0l2.046 4.043c0.177 0.314 0.383 0.553 0.618 0.718 0.241 0.172 0.578 0.274 1.01 0.305v0l2.773 0.207-0.562 7.549-5.165-0.384c-1.655-0.123-3.1-0.605-4.335-1.446-1.234-0.841-2.156-1.882-2.766-3.123v0l-3.069-6.325c-0.199-0.015-0.399-0.03-0.599-0.045-0.199-0.015-0.382-0.028-0.548-0.041v0l-3.88-0.288zM578.933-18.584l-0.702 9.444 5.664 0.421c0.831 0.062 1.607-0.074 2.327-0.409 0.726-0.327 1.333-0.84 1.819-1.539 0.486-0.693 0.765-1.521 0.837-2.485v0c0.071-0.957-0.083-1.801-0.464-2.531-0.381-0.724-0.906-1.304-1.575-1.742-0.663-0.43-1.41-0.676-2.242-0.738v0zM617.925 11.734l-16.283-1.361 0.643-7.694 14.788 1.237c0.631 0.053 1.18-0.035 1.648-0.263 0.467-0.229 0.853-0.564 1.158-1.007 0.304-0.436 0.478-0.92 0.523-1.452v0c0.047-0.565-0.043-1.087-0.27-1.568-0.227-0.487-0.552-0.882-0.975-1.185-0.423-0.303-0.95-0.481-1.581-0.534v0l-4.913-0.411c-2.086-0.174-3.938-0.744-5.557-1.709-1.618-0.972-2.867-2.27-3.748-3.896-0.881-1.619-1.231-3.522-1.048-5.707v0c0.18-2.152 0.818-3.982 1.914-5.489 1.089-1.508 2.482-2.639 4.178-3.394 1.696-0.761 3.537-1.059 5.523-0.893v0l15.586 1.304-0.644 7.693-14.389-1.204c-0.531-0.044-1.014 0.042-1.447 0.261-0.432 0.211-0.782 0.507-1.048 0.885-0.265 0.373-0.419 0.808-0.46 1.307v0c-0.042 0.498 0.037 0.963 0.235 1.394 0.198 0.431 0.492 0.79 0.883 1.077 0.391 0.28 0.853 0.443 1.384 0.487v0l5.212 0.436c2.319 0.194 4.285 0.793 5.9 1.798 1.616 0.998 2.821 2.306 3.616 3.925 0.802 1.612 1.115 3.462 0.941 5.548v0c-0.199 2.385-0.859 4.387-1.978 6.006-1.119 1.626-2.536 2.808-4.25 3.548-1.708 0.74-3.555 1.027-5.541 0.861z" opacity="1" transform="matrix(1,0,0,1,0,0)" fill="#ffbe79" class="wordmark-text-0" data-fill-palette-color="primary" id="text-0"></path></svg></g></svg></g></svg></g></svg></g><g transform="matrix(1,0,0,1,143.91264606167482,0)"><svg viewBox="0 0 107.69470787665037 106.4095093159304" height="106.4095093159304" width="107.69470787665037"><g><svg xmlns="http://www.w3.org/2000/svg" xmlns:xlink="http://www.w3.org/1999/xlink" version="1.1" x="0" y="0" viewBox="7.679861068725586 8.78588581085205 80.37327575683594 79.41412353515625" enable-background="new 0 0 100 100" xml:space="preserve" height="106.4095093159304" width="107.69470787665037" class="icon-icon-0" data-fill-palette-color="accent" id="icon-0"><g fill="#ffbe79" data-fill-palette-color="accent"><path d="M30.1 27c0.2 0.6 0.8 0.9 1.4 0.9 0.2 0 0.4 0 0.6-0.1 0.8-0.3 1.1-1.2 0.8-2L25.7 9.7c-0.3-0.8-1.2-1.1-2-0.8-0.8 0.3-1.1 1.2-0.8 2L30.1 27z" fill="#ffbe79" data-fill-palette-color="accent"></path><path d="M18.5 32.5c0.4 0 0.9-0.2 1.2-0.6 0.5-0.6 0.4-1.6-0.2-2.1l-9.4-7.5C9.5 21.9 8.5 22 8 22.6c-0.5 0.6-0.4 1.6 0.2 2.1l9.4 7.5C17.9 32.4 18.2 32.5 18.5 32.5z" fill="#ffbe79" data-fill-palette-color="accent"></path><path d="M66.2 27.6c0.2 0.1 0.4 0.1 0.6 0.1 0.6 0 1.1-0.3 1.4-0.9l5.6-12.2c0.3-0.8 0-1.6-0.7-2-0.8-0.3-1.6 0-2 0.7l-5.6 12.2C65.1 26.3 65.4 27.2 66.2 27.6z" fill="#ffbe79" data-fill-palette-color="accent"></path><path d="M87.5 21.2c-0.6-0.5-1.6-0.5-2.1 0.2L77.9 30c-0.5 0.6-0.5 1.6 0.2 2.1 0.3 0.2 0.6 0.4 1 0.4 0.4 0 0.8-0.2 1.1-0.5l7.5-8.7C88.2 22.7 88.2 21.7 87.5 21.2z" fill="#ffbe79" data-fill-palette-color="accent"></path><path d="M48.9 25.8C49 25.8 49 25.8 48.9 25.8c0.9 0 1.5-0.6 1.5-1.4L50.8 14c0-0.8-0.6-1.5-1.4-1.5-0.8 0-1.5 0.6-1.5 1.4l-0.3 10.3C47.5 25.1 48.1 25.8 48.9 25.8z" fill="#ffbe79" data-fill-palette-color="accent"></path><path d="M86.7 60.4c-0.1-0.4-0.3-0.7-0.6-0.9-0.6-1-1.8-2.4-3.8-3.7 0.3-0.4 0.6-0.7 0.7-1.1 0 0 0-0.1 0-0.1 0.1-0.3 2-8.4-3.9-14.4-4.3-4.3-17.4-7.6-30-7.6-6.8 0-16.5 1-24.1 5.6-0.9 0.5-10.3 6.1-8.9 18.1 0.1 0.5 0.2 0.9 0.5 1.3-2.9 2.1-5.8 4.7-5.5 6.7 0.1 0.4 0.4 1.5 1.8 2 0.6 0.2 1.2 0.3 1.9 0.3 1.5 0 2.7-0.5 3.6-0.9 0 0 0 0 0 0 0 0.1 0 0.1 0 0.2 0.1 0.6 0.1 1.3 0.3 2.1-0.1 0.1-0.1 0.3-0.2 0.4-1.3 0.6-2.9 1.7-3 3.3 0 0.1 0 0.3-0.1 0.4-0.9 6.3 1.2 10.5 6.3 12.3 4.7 1.7 13.1 3.8 25.1 3.8 6 0 12.9-0.5 20.7-1.9 15.2-2.7 16.4-5.4 15.9-13.1 0-0.5-0.1-1-0.1-1.6 0-1-0.5-1.8-1.2-2.3-0.5-0.4-1.1-0.6-1.7-0.7 1.1-0.1 2.3-0.3 3.4-0.6 0.5-0.1 0.9-0.5 1.1-1l1.8-5.5c0.1-0.3 0.1-0.6 0-1C86.8 60.5 86.7 60.4 86.7 60.4zM22.8 81.6c-4.7-1.7-4.9-5.5-4.4-9 0-0.2 0.1-0.4 0.1-0.5 0-0.1 0.2-0.2 0.3-0.4 0.4 0.3 1.4 0.7 2.7 1.2 0.2 0.1 0.4 0.1 0.6 0.2 3.1 1 7.9 2.2 13.8 3 0.9 1.4 2 2.5 3.4 2.5 0.5 0 0.9-0.1 1.4-0.3 0.7-0.3 1.2-0.9 1.5-1.5 10.9 0.8 24.2-0.1 37.2-5.4 0.5 0.1 0.8 0.2 0.9 0.3 0 0.6 0.1 1.1 0.1 1.6 0.4 5.9 0.5 7.5-13.4 10C44.3 87.4 29.6 84 22.8 81.6zM26.6 40.7c7-4.3 16.1-5.2 22.5-5.2 12.7 0 24.6 3.5 27.9 6.7 4.5 4.5 3.3 10.7 3.2 11.4-0.1 0.2-0.3 0.4-0.6 0.6-0.4 0.3-1.1 0.6-1.9 0.9-0.6 0.2-1.3 0.5-2.1 0.7-1.2 0.3-2.5 0.7-4 1-0.8 0.2-1.7 0.3-2.6 0.5-0.6 0.1-1.2 0.2-1.8 0.3-0.8 0.1-1.6 0.2-2.4 0.4-0.7 0.1-1.4 0.2-2.2 0.3-0.7 0.1-1.3 0.2-2 0.2-0.7 0.1-1.4 0.2-2.2 0.2-1 0.1-1.9 0.2-3 0.3-4.3 0.3-9 0.5-13.9 0.5 0 0 0 0 0 0-10 0-15.8-0.9-19-1.8-0.9-0.3-1.7-0.6-2.2-0.8-0.8-0.4-1.2-0.8-1.2-1.1 0 0 0 0 0 0C17.9 45.4 26.1 40.9 26.6 40.7 26.5 40.7 26.6 40.7 26.6 40.7zM33.8 69.2c-0.5 0-0.8 0-0.8 0l-1.5-0.8c1.1-0.7 1.8-1 2.1-1.2 0 0.1 0 0.3 0 0.5C33.7 68 33.7 68.6 33.8 69.2zM69.9 68c-0.5 0.7-1 1.1-2 1-1.5-0.2-1.5 0-2.2-0.7-0.4-0.4-1.1-1.1-1.9-1.4 0-0.1 0.1-0.3 0.1-0.4C65.7 67 67.7 67.6 69.9 68zM52.2 69.8c0.1-0.3 0.2-0.6 0.3-0.9 0.1-0.7 1.6-0.8 1.9-0.8 1.4 0 3 0.5 4.1 1.3 0.1 0.1 0.2 0.1 0.3 0.2-0.1 0.1-0.2 0.2-0.3 0.2-0.5 0.4-1 0.7-1.5 1.1-1.5 0.9-3.6 1.5-3.6 1.5s-3 1-4.5-0.5C50.4 71.9 51.6 71.1 52.2 69.8zM80.7 59.7c-2.8 0.2-5.3 0.1-7.4-0.2 1-0.2 1.9-0.5 2.8-0.7 1.3-0.4 2.5-0.8 3.4-1.3 1.2 0.6 2.2 1.3 2.8 2C81.8 59.6 81.3 59.7 80.7 59.7zM19 59.6c1.4 0.8 3.4 1.4 5.9 1.9l-1.8 3c-0.4 0.7-0.2 1.6 0.5 2.1 0.2 0.1 0.5 0.2 0.8 0.2 0.5 0 1-0.3 1.3-0.7l2.4-4c3.4 0.4 7.6 0.6 12.4 0.7l0.4 2.3c0.1 0.7 0.8 1.2 1.5 1.2 0.1 0 0.2 0 0.3 0 0.8-0.2 1.3-0.9 1.2-1.8l-0.3-1.8c3.6-0.1 8-0.2 12.5-0.6 0.8-0.1 1.5-0.1 2.3-0.2 0.4 0 0.7-0.1 1.1-0.1 0.5 0.6 0.9 1.3 1.2 1.9 0.3 0.6 0.4 1.3 0.4 1.8 0 0.2 0 0.4 0 0.6-0.1 0.8-0.5 1.2-0.5 1.2 0 0-0.1 0-0.1-0.1-1.6-1.2-3.8-1.9-5.9-1.9-2.6 0-4.4 1.2-4.8 3.2 0 0.2-0.1 0.6-0.9 0.6-0.8 0-2.2-0.5-3.3-1.6-0.5-0.5-1.1-0.8-1.7-0.8-1.2 0-1.8 0.8-2.2 2-0.1 0.3-0.2 0.6-0.3 1-0.1 0.5-0.2 1-0.3 1.5-0.2 1.5-0.7 4.1-1.5 4.6-0.8-0.3-2.1-3.5-2.5-6.2 0-0.1 0-0.3-0.1-0.4-0.1-0.5-0.1-0.9-0.1-1.4 0-3.2-1.9-3.6-2.7-3.6-1 0-2.5 0.4-6 3.1-0.6 0.4-1.2 0.9-1.9 1.5-0.2 0.2-0.5 0.4-0.7 0.5-1.2 0.9-1.9 1-2.2 1-0.4 0-0.7-0.4-1-1 0 0 0 0 0 0-0.1-0.3-0.2-0.6-0.3-0.9-0.1-0.5-0.2-1-0.3-1.5-0.1-0.5-0.1-0.9-0.1-1.2 0-0.5-0.1-0.9-0.1-1.2-0.2-1.5-1.3-2-2.1-2-0.6 0-1.2 0.2-1.9 0.5-0.9 0.3-1.9 0.8-2.9 0.6C15.1 62.6 17 61 19 59.6zM82.4 65.3c-0.9 0.2-1.8 0.3-2.6 0.4-2.4 0.2-4.8 0.1-7-0.2-3.5-0.5-6.6-1.4-9.1-2.3-0.2-0.6-0.4-1.2-0.8-1.8 1.3-0.2 2.6-0.3 3.9-0.5 2.6 1.1 6.2 2.1 11 2.1 1.7 0 3.6-0.1 5.6-0.4L82.4 65.3z" fill="#ffbe79" data-fill-palette-color="accent"></path></g></svg></g></svg></g><g></g></svg></g><defs></defs></svg>